<svg width="44" height="37" viewBox="0 0 44 37" fill="none" xmlns="http://www.w3.org/2000/svg">
<path d="M22.0354 9.52167L20.7655 13.1669H23.3053L22.0354 9.52167Z" fill="#272727"/>
<path d="M30.1896 0H13.8096L0 24.2262L7.34106 37L36.6476 36.9842L44 24.2253L30.1896 0ZM20.4496 6.6023H23.6834L27.7653 17.6441H24.8632L24.0773 15.3744H19.9954L19.2095 17.6441H16.3677L20.4505 6.6023H20.4496ZM16.1411 30.6184C13.4647 30.6184 11.6505 29.3933 11.2882 27.1543H14.2813C14.508 27.9862 15.2186 28.3645 16.2015 28.3645C17.1081 28.3645 17.8494 28.0011 17.8494 27.2445C17.8494 26.6999 17.4862 26.4582 16.7301 26.2918L14.5832 25.8225C12.9204 25.4591 11.6496 24.6728 11.6496 22.8129C11.6496 20.7105 13.54 19.2132 16.0492 19.2132C18.7552 19.2132 20.3271 20.6046 20.5844 22.5713H17.7575C17.5615 21.9058 17.0162 21.4364 15.9888 21.4364C15.1118 21.4364 14.5228 21.8751 14.5228 22.4951C14.5228 22.9942 14.8397 23.2368 15.475 23.3725L17.6971 23.8716C19.6173 24.2945 20.7052 25.3085 20.7052 27.002C20.7052 29.2252 18.6187 30.6175 16.1402 30.6175L16.1411 30.6184ZM27.8099 28.1079C28.8531 28.1079 29.4877 27.5782 29.7598 26.7314H32.6322C32.2392 28.9853 30.5764 30.6184 27.8248 30.6184C24.7704 30.6184 22.5186 28.2436 22.5186 24.9162C22.5186 21.5888 24.7713 19.2141 27.8248 19.2141C30.5764 19.2141 32.2392 20.848 32.6322 23.101H29.7598C29.4877 22.2543 28.8531 21.7245 27.8099 21.7245C26.2678 21.7245 25.3909 23.0853 25.3909 24.9162C25.3909 26.7472 26.2678 28.1079 27.8099 28.1079Z" fill="#272727"/>
</svg>
